<?xml version="1.0" encoding="utf-8"?>
<!-- Generator: Adobe Illustrator 26.0.1, SVG Export Plug-In . SVG Version: 6.00 Build 0)  -->
<svg version="1.1" id="레이어_1" xmlns="http://www.w3.org/2000/svg" xmlns:xlink="http://www.w3.org/1999/xlink" x="0px"
	 y="0px" viewBox="0 0 1080 1000" style="enable-background:new 0 0 1080 1000;" xml:space="preserve">
<style type="text/css">
	.st0{fill:none;}
	.st1{fill:#B77548;stroke:#B77548;stroke-width:5;stroke-miterlimit:10;}
</style>
<rect x="-108.12" y="-112.65" class="st0" width="1295.48" height="1224.99"/>
<path class="st1" d="M540.2,173c-0.58-2.4-0.82-4.96-0.82-7.36c0-4.16,0.58-8,0.93-9.28c2.57-12.8,16.59-73.15,22.43-98.43h-45.21
	c-10.87,0.32-21.26,4.32-21.49,17.13c0,5.28,6.89,12.8,6.89,12.8c-2.69,1.44-5.26,2.08-7.6,2.08c-7.95,0-12.38-7.2-12.5-15.68
	c0-11.53,8.99-24.96,31.31-24.96h132.48v8.65h-66.59c-6.42,28.33-19.86,86.91-23.01,101.15c-0.7,3.84-1.05,7.04-1.05,9.6
	c0,9.76,4.44,10.56,6.19,10.56h0.58c-1.99,2.24-5.49,3.36-9.23,3.36C547.91,182.6,541.95,179.88,540.2,173z"/>
<path class="st1" d="M519.17,355.57c-7.01,0-12.73-1.6-14.72-9.28c-0.58-2.24-0.82-4.8-0.82-7.04c0-4.32,0.7-8.16,1.05-9.6
	c2.57-12.8,16.47-73.46,22.2-98.59h-9.34c-9.69,0.32-20.91,4-21.49,16.16v0.96c0,5.28,6.89,12.8,6.89,12.8
	c-2.69,1.44-5.26,2.08-7.6,2.08c-7.48,0-12.26-6.88-12.5-14.88v-0.8c0-11.53,8.99-24.96,31.31-24.96h80.73
	c11.1,0,15.19,7.68,15.19,14.56c0,5.6-2.69,10.73-6.42,10.73c-3.27,0-5.96-3.52-5.96-8c0-3.52,1.64-6.56,3.97-7.68
	c-1.41-0.64-2.69-0.96-4.2-0.96h-53.28c-2.34,10.56-5.72,25.61-9.23,40.81h59.35l-2.57,8.65h-58.64
	c-5.14,22.41-9.93,44.02-11.68,51.85c-0.82,4-1.05,7.04-1.05,9.6c0,2.08,0.12,3.84,0.47,5.12h35.28c9.81-0.48,20.91-4,21.49-16.16
	v-1.44c0-4.96-1.87-8.16-6.89-12.33V317c2.69-1.44,5.26-1.92,7.48-1.92c7.6,0,12.38,6.72,12.73,14.88v0.64
	c0,11.36-8.88,24.96-31.43,24.96L519.17,355.57L519.17,355.57z"/>
<path class="st1" d="M536.46,539.81l2.34-7.84c0,0,5.61,2.08,13.55,2.08c18.34,0,46.03-11.36,47.67-78.9
	c0-11.05-2.34-46.25-30.84-47.22c-6.54-0.32-14.6-0.48-24.41-0.48l-22.78,101.47c-0.7,3.84-1.4,8.16-1.4,11.36
	c0,3.36,0.7,5.76,2.45,5.76c8.88-2.08,13.9-13.6,14.14-14.25c0.12-0.64,0.7-0.64,2.34-0.64c1.05,0,1.05,0.8,1.05,0.8
	s-6.31,20.01-24.53,20.33c-9.81,0-11.8-8.96-11.8-16.48c0-4.32,0.7-8.16,0.93-9.6c2.69-12.8,16.71-73.95,22.32-98.91h-9.93
	c-10.87,0.32-21.26,4.32-21.49,17.13c0,5.28,1.76,8.48,6.89,12.8c-2.69,1.44-5.26,2.08-7.6,2.08c-7.95,0-12.38-7.2-12.5-15.85
	c0-11.36,8.88-24.81,31.31-24.81h36.57l19.4,0.16c34.23,0.48,47.9,24.96,47.9,53.94c0,2.72-0.12,5.76-0.35,8.65
	c-3.85,42.25-29.21,80.66-65.54,80.66C547.09,542.04,541.84,541.41,536.46,539.81z"/>
<path class="st1" d="M536.46,723.81l2.34-7.84c0,0,5.61,2.08,13.55,2.08c18.34,0,46.03-11.36,47.67-78.9
	c0-11.05-2.34-46.25-30.84-47.22c-6.54-0.32-14.6-0.48-24.41-0.48l-22.79,101.47c-0.7,3.84-1.4,8.16-1.4,11.36
	c0,3.36,0.7,5.76,2.45,5.76c8.88-2.08,13.9-13.6,14.14-14.25c0.12-0.64,0.7-0.64,2.34-0.64c1.05,0,1.05,0.8,1.05,0.8
	s-6.31,20.01-24.53,20.33c-9.81,0-11.8-8.96-11.8-16.48c0-4.32,0.7-8.16,0.93-9.6c2.69-12.8,16.71-73.95,22.32-98.91h-9.93
	c-10.87,0.32-21.26,4.32-21.49,17.13c0,5.28,1.76,8.48,6.89,12.8c-2.69,1.44-5.26,2.08-7.6,2.08c-7.95,0-12.38-7.2-12.5-15.85
	c0-11.36,8.88-24.81,31.31-24.81h36.57l19.4,0.16c34.23,0.48,47.9,24.96,47.9,53.94c0,2.72-0.12,5.76-0.35,8.65
	c-3.85,42.25-29.21,80.66-65.54,80.66C547.09,726.04,541.84,725.41,536.46,723.81z"/>
<path class="st1" d="M511.58,867.98c0-2.88,0.35-5.92,0.93-9.13c2.57-12.8,14.14-62.26,19.4-84.99h-14.37
	c-10.87,0.32-21.26,4.32-21.49,17.13c0,5.28,6.89,12.96,6.89,12.96c-2.69,1.28-5.14,1.92-7.48,1.92c-7.95,0-12.5-7.2-12.61-15.85
	c0-11.36,8.88-24.81,31.31-24.81h32.48c3.04,0,4.68-3.52,4.68-3.52h0.7c-3.74,16.96-18.93,82.91-22.78,99.87
	c-1.05,5.76-1.64,10.88-1.64,15.36c0,14.56,5.49,22.56,14.49,22.56c6.66,0,18.11-5.28,24.89-14.56l0.12,3.04
	c-6.31,10.4-15.42,14.88-24.3,14.88C527,902.87,511.58,888.94,511.58,867.98z M484.71,889.1c0-28.81,6.77-40.81,17.99-52.17h0.23
	c0.23,0,0.23,0,0.23,0.32c0,0.16,0,0.32-0.23,0.48c-9.11,9.93-14.95,25.45-14.95,42.74c0,30.25,17.87,54.74,40.07,54.74
	c25.59,0,34.81-23.69,41.24-52.5l26.17-116.84h17.29l-27.46,122.76c-7.93,35.37-19.85,61.78-51.51,61.78
	C506.67,950.4,484.71,918.55,484.71,889.1z"/>
</svg>
